<?xml version="1.0" encoding="utf-8"?>
<!-- Generator: Adobe Illustrator 22.1.0, SVG Export Plug-In . SVG Version: 6.00 Build 0)  -->
<svg version="1.1" id="Layer_1" xmlns="http://www.w3.org/2000/svg" xmlns:xlink="http://www.w3.org/1999/xlink" x="0px" y="0px"
	 viewBox="0 0 1100 400" style="enable-background:new 0 0 1100 400;" xml:space="preserve">
<style type="text/css">
	.st0{fill-rule:evenodd;clip-rule:evenodd;fill:#FFFFFF;}
	.st1{fill:#FFFFFF;}
</style>
<g>
	<g>
		<path class="st1" d="M502.6,107.8h11.6l11.5,30.7l11.5-30.7h11.4V151h-9.6v-28l-9.6,28h-7.4l-9.8-28.2V151h-9.6V107.8z"/>
		<path class="st1" d="M554.4,136.1c0-8.9,5.5-15.7,14.1-15.7c4.3,0,7.7,2,9.3,5.1v-4.3h9.4V151h-9.4v-4.2c-1.6,3-5.3,5-9.4,5
			C559.5,151.8,554.4,145.1,554.4,136.1z M578.2,136.1c0-4.3-2.4-7.8-7.1-7.8c-4.4,0-7.1,3.3-7.1,7.8c0,4.5,2.7,7.8,7.1,7.8
			C575.8,144,578.2,140.4,578.2,136.1z"/>
		<path class="st1" d="M613.9,143.5v7.5c-1.4,0.2-3.6,0.5-6.3,0.5c-4.4,0-10.6-1-10.6-10.9v-11.9h-4.7v-7.5h4.7v-8.8h9.4v8.8h6.7
			v7.5h-6.7v9.9c0,4.4,1.8,5.1,4.1,5.1C611.8,143.7,613.1,143.6,613.9,143.5z"/>
		<path class="st1" d="M648.4,138.7h-22c0.2,3.9,2.8,6.1,7,6.1c2.9,0,4.8-0.9,5.6-2.8h9.3c-0.9,5.9-6.9,9.9-14.8,9.9
			c-10.1,0-16.4-5.9-16.4-15.8c0-9.8,6.4-15.7,16-15.7c9.3,0,15.6,5.8,15.6,14.2C648.6,136.2,648.6,137,648.4,138.7z M639.3,132.9
			c-0.1-4-2.3-6.2-6.3-6.2c-4.1,0-6.5,2.5-6.6,6.2H639.3z"/>
		<path class="st1" d="M654,121.3h9.4v4.3c1.3-3,4.4-5.1,8.5-5.1c5.3,0,8,2.3,9.3,5.5c1.6-3.2,5.1-5.5,9.5-5.5
			c8.5,0,10.6,5.9,10.6,12.1V151h-9.5v-16.7c0-4.1-1.5-5.9-4.4-5.9c-3,0-5,1.7-5,7.3V151h-9.5v-16.8c0-4.1-1.5-5.8-4.4-5.8
			c-3,0-5.1,1.7-5.1,7.3V151H654V121.3z"/>
		<path class="st1" d="M706.7,136.1c0-8.9,5.5-15.7,14.1-15.7c4.3,0,7.7,2,9.3,5.1v-4.3h9.4V151h-9.4v-4.2c-1.6,3-5.3,5-9.4,5
			C711.8,151.8,706.7,145.1,706.7,136.1z M730.5,136.1c0-4.3-2.4-7.8-7.1-7.8c-4.4,0-7.1,3.3-7.1,7.8c0,4.5,2.7,7.8,7.1,7.8
			C728.1,144,730.5,140.4,730.5,136.1z"/>
		<path class="st1" d="M766.2,143.5v7.5c-1.4,0.2-3.6,0.5-6.3,0.5c-4.4,0-10.6-1-10.6-10.9v-11.9h-4.7v-7.5h4.7v-8.8h9.4v8.8h6.7
			v7.5h-6.7v9.9c0,4.4,1.8,5.1,4.1,5.1C764.1,143.7,765.4,143.6,766.2,143.5z"/>
		<path class="st1" d="M770.6,112.9c0-3.2,2.4-5.8,5.8-5.8c3.4,0,5.9,2.6,5.9,5.8c0,3.1-2.5,5.7-5.9,5.7
			C773,118.6,770.6,116,770.6,112.9z M771.6,121.3h9.4V151h-9.4V121.3z"/>
		<path class="st1" d="M807.7,151l-9.4-12.9V151h-9.4v-43.2h9.4v25.9l9.7-12.4h11.1l-11.9,14.1l12,15.7H807.7z"/>
		<path class="st1" d="M818.8,136.1c0-9.1,6.3-15.7,16.5-15.7c10.2,0,16.5,6.7,16.5,15.7c0,9.1-6.3,15.8-16.5,15.8
			C825.1,151.9,818.8,145.2,818.8,136.1z M842.4,136.1c0-4.5-2.7-7.8-7.1-7.8c-4.5,0-7.1,3.3-7.1,7.8c0,4.5,2.6,7.8,7.1,7.8
			C839.8,143.9,842.4,140.6,842.4,136.1z"/>
		<path class="st1" d="M855.2,142.1h9.4c0,2,2,3.5,4.9,3.5c2,0,3.5-1,3.5-2.8c0-1.2-0.6-2.2-2.2-2.5l-7.3-1.9
			c-4.9-1.2-7.5-4.3-7.5-8.6c0-5.6,4.9-9.4,12.7-9.4c8.7,0,13.3,3.6,13.3,9.3h-9.3c0-2.1-1.5-3.3-4.1-3.3c-2,0-3.4,1-3.4,2.5
			c0,1.4,0.9,2.2,2.5,2.7l7,1.9c4.6,1.2,7.5,4,7.5,8.3c0,6.1-4.9,10.2-13,10.2C860.6,151.9,855.2,147.7,855.2,142.1z"/>
		<path class="st1" d="M902.1,112.9c0-3.2,2.4-5.8,5.8-5.8c3.4,0,5.9,2.6,5.9,5.8c0,3.1-2.5,5.7-5.9,5.7
			C904.5,118.6,902.1,116,902.1,112.9z M903.1,121.3h9.4V151h-9.4V121.3z"/>
		<path class="st1" d="M920.3,121.3h9.4v6.2c1-4.4,4.6-6.7,8.2-6.7c1.1,0,1.7,0.1,2.5,0.2v8.8c-1.1-0.1-1.7-0.2-2.8-0.2
			c-4.6,0-7.8,2.8-7.8,9.9V151h-9.4V121.3z"/>
		<path class="st1" d="M501.2,181.4c0-3.2,2.4-5.8,5.8-5.8c3.4,0,5.9,2.6,5.9,5.8c0,3.1-2.5,5.7-5.9,5.7
			C503.6,187.2,501.2,184.6,501.2,181.4z M502.3,189.8h9.4v29.7h-9.4V189.8z"/>
		<path class="st1" d="M519.5,189.8h9.4v4.3c1.7-3.3,5.1-5.1,9.6-5.1c7.2,0,10.9,4.1,10.9,12.2v18.4h-9.5v-15.3c0-5-1.4-7.3-5.2-7.3
			c-3.8,0-5.7,2.5-5.7,7v15.6h-9.4V189.8z"/>
		<path class="st1" d="M568.4,186.8v3h6.9v7.5h-6.9v22.3H559v-22.3h-5.3v-7.5h5.3v-2.9c0-9.1,6.5-11.1,10.9-11.1
			c2.5,0,4.3,0.3,5.4,0.7v6.7c-1-0.1-1.7-0.2-2.6-0.2C570.7,183,568.4,183.5,568.4,186.8z"/>
		<path class="st1" d="M577.2,204.7c0-9.1,6.3-15.7,16.5-15.7c10.2,0,16.5,6.7,16.5,15.7s-6.3,15.8-16.5,15.8
			C583.5,220.5,577.2,213.8,577.2,204.7z M600.9,204.7c0-4.5-2.7-7.8-7.1-7.8c-4.5,0-7.1,3.3-7.1,7.8c0,4.5,2.6,7.8,7.1,7.8
			C598.2,212.5,600.9,209.2,600.9,204.7z"/>
		<path class="st1" d="M615.7,189.8h9.4v6.2c1-4.4,4.6-6.7,8.2-6.7c1.1,0,1.7,0.1,2.5,0.2v8.8c-1.1-0.1-1.7-0.2-2.8-0.2
			c-4.6,0-7.8,2.8-7.8,9.9v11.5h-9.4V189.8z"/>
		<path class="st1" d="M640.8,189.8h9.4v4.3c1.3-3,4.4-5.1,8.5-5.1c5.3,0,8,2.3,9.3,5.5c1.6-3.2,5.1-5.5,9.5-5.5
			c8.5,0,10.6,5.9,10.6,12.1v18.5h-9.5v-16.7c0-4.1-1.5-5.9-4.4-5.9c-3,0-5,1.7-5,7.3v15.3h-9.5v-16.8c0-4.1-1.5-5.8-4.4-5.8
			c-3,0-5.1,1.7-5.1,7.3v15.3h-9.4V189.8z"/>
		<path class="st1" d="M693.5,204.7c0-8.9,5.5-15.7,14.1-15.7c4.3,0,7.7,2,9.3,5.1v-4.3h9.4v29.7h-9.4v-4.2c-1.6,3-5.3,5-9.4,5
			C698.6,220.4,693.5,213.6,693.5,204.7z M717.3,204.7c0-4.3-2.4-7.8-7.1-7.8c-4.4,0-7.1,3.3-7.1,7.8c0,4.5,2.7,7.8,7.1,7.8
			C714.9,212.5,717.3,209,717.3,204.7z"/>
		<path class="st1" d="M753,212v7.5c-1.4,0.2-3.6,0.5-6.3,0.5c-4.4,0-10.6-1-10.6-10.9v-11.9h-4.7v-7.5h4.7V181h9.4v8.8h6.7v7.5
			h-6.7v9.9c0,4.4,1.8,5.1,4.1,5.1C750.9,212.2,752.2,212.2,753,212z"/>
		<path class="st1" d="M757.4,181.4c0-3.2,2.4-5.8,5.8-5.8c3.4,0,5.9,2.6,5.9,5.8c0,3.1-2.5,5.7-5.9,5.7
			C759.8,187.2,757.4,184.6,757.4,181.4z M758.4,189.8h9.4v29.7h-9.4V189.8z"/>
		<path class="st1" d="M794.5,219.6l-9.4-12.9v12.9h-9.4v-43.2h9.4v25.9l9.7-12.4h11.1L794,203.9l12,15.7H794.5z"/>
		<path class="st1" d="M805.6,204.7c0-9.1,6.3-15.7,16.5-15.7c10.2,0,16.5,6.7,16.5,15.7s-6.3,15.8-16.5,15.8
			C811.9,220.5,805.6,213.8,805.6,204.7z M829.2,204.7c0-4.5-2.7-7.8-7.1-7.8c-4.5,0-7.1,3.3-7.1,7.8c0,4.5,2.6,7.8,7.1,7.8
			C826.6,212.5,829.2,209.2,829.2,204.7z"/>
		<path class="st1" d="M842,210.6h9.4c0,2,2,3.5,4.9,3.5c2,0,3.5-1.1,3.5-2.8c0-1.2-0.6-2.2-2.2-2.5l-7.3-1.9
			c-4.9-1.2-7.5-4.3-7.5-8.6c0-5.6,4.9-9.4,12.7-9.4c8.7,0,13.3,3.6,13.3,9.3h-9.3c0-2.1-1.5-3.3-4.1-3.3c-2,0-3.4,1-3.4,2.5
			c0,1.4,0.9,2.2,2.5,2.7l7,1.9c4.6,1.2,7.5,4,7.5,8.3c0,6.1-4.9,10.2-13,10.2C847.4,220.5,842,216.2,842,210.6z"/>
		<path class="st1" d="M514.2,255.3v3h6.9v7.5h-6.9v22.3h-9.4v-22.3h-5.3v-7.5h5.3v-2.9c0-9.1,6.5-11.1,10.9-11.1
			c2.5,0,4.3,0.3,5.4,0.7v6.7c-1-0.1-1.7-0.2-2.6-0.2C516.5,251.6,514.2,252.1,514.2,255.3z"/>
		<path class="st1" d="M523,273.2c0-8.9,5.5-15.7,14.1-15.7c4.3,0,7.7,2,9.3,5.1v-4.3h9.4v29.7h-9.4v-4.2c-1.6,3-5.3,5-9.4,5
			C528.1,288.9,523,282.2,523,273.2z M546.8,273.2c0-4.3-2.4-7.8-7.1-7.8c-4.4,0-7.1,3.3-7.1,7.8c0,4.5,2.7,7.8,7.1,7.8
			C544.4,281.1,546.8,277.6,546.8,273.2z"/>
		<path class="st1" d="M582.5,288.1l-9.4-12.9v12.9h-9.4v-43.2h9.4v25.9l9.7-12.4h11.1L582,272.4l12,15.7H582.5z"/>
		<path class="st1" d="M597.8,276.8v-18.4h9.6v16.3c0,4.1,1.4,6.3,4.9,6.3c4,0,5.7-2.6,5.7-6.6v-16h9.4v29.7h-9.4v-4.3
			c-1.7,3.1-4.8,5.1-9.3,5.1C601.7,288.9,597.8,284.5,597.8,276.8z"/>
		<path class="st1" d="M635.3,244.9h9.4v43.2h-9.4V244.9z"/>
		<path class="st1" d="M671.4,280.6v7.5c-1.4,0.2-3.6,0.5-6.3,0.5c-4.4,0-10.6-1-10.6-10.9v-11.9h-4.7v-7.5h4.7v-8.8h9.4v8.8h6.7
			v7.5H664v9.9c0,4.4,1.8,5.1,4.1,5.1C669.3,280.8,670.5,280.7,671.4,280.6z"/>
		<path class="st1" d="M705.8,275.8h-22c0.2,3.9,2.8,6.1,7,6.1c2.9,0,4.8-0.9,5.6-2.8h9.3c-0.9,5.9-6.9,9.9-14.8,9.9
			c-10.1,0-16.4-5.9-16.4-15.8c0-9.8,6.4-15.7,16-15.7c9.3,0,15.6,5.8,15.6,14.2C706.1,273.3,706,274.1,705.8,275.8z M696.7,270
			c-0.1-4-2.3-6.2-6.3-6.2c-4.1,0-6.5,2.5-6.6,6.2H696.7z"/>
		<path class="st1" d="M730.2,280.6v7.5c-1.4,0.2-3.6,0.5-6.3,0.5c-4.4,0-10.6-1-10.6-10.9v-11.9h-4.7v-7.5h4.7v-8.8h9.4v8.8h6.7
			v7.5h-6.7v9.9c0,4.4,1.8,5.1,4.1,5.1C728.2,280.8,729.4,280.7,730.2,280.6z"/>
		<path class="st1" d="M733.3,273.2c0-8.9,5.5-15.7,14.1-15.7c4.3,0,7.7,2,9.3,5.1v-4.3h9.4v29.7h-9.4v-4.2c-1.6,3-5.3,5-9.4,5
			C738.5,288.9,733.3,282.2,733.3,273.2z M757.2,273.2c0-4.3-2.4-7.8-7.1-7.8c-4.4,0-7.1,3.3-7.1,7.8c0,4.5,2.7,7.8,7.1,7.8
			C754.7,281.1,757.2,277.6,757.2,273.2z"/>
		<path class="st1" d="M771.8,279.2h9.4c0,2,2,3.5,4.9,3.5c2,0,3.5-1.1,3.5-2.8c0-1.2-0.6-2.2-2.2-2.5l-7.3-1.9
			c-4.9-1.2-7.5-4.3-7.5-8.6c0-5.6,4.9-9.4,12.7-9.4c8.7,0,13.3,3.6,13.3,9.3h-9.3c0-2.1-1.5-3.3-4.1-3.3c-2,0-3.4,1-3.4,2.5
			c0,1.4,0.9,2.2,2.5,2.7l7,1.9c4.6,1.2,7.5,4,7.5,8.3c0,6.1-4.9,10.2-13,10.2C777.2,289,771.8,284.8,771.8,279.2z"/>
	</g>
	<g id="XMLID_230_">
		<g id="XMLID_342_">
			<g>
				<g>
					<path class="st0" d="M169.9,234.8l12.6-2.5l-0.5-2.4l-12.6,2.5c-2.3,0.5-4.6-0.8-5.1-3.2c-0.5-2.5,1.2-4.4,3.5-4.9l12.6-2.5
						l-0.5-2.4l-12.6,2.5c-3.5,0.7-5.9,3.8-5.2,7.7C162.9,233.5,166.4,235.5,169.9,234.8z"/>
				</g>
			</g>
		</g>
		<g id="XMLID_341_">
			<g>
				<g>
					<polygon class="st0" points="187.8,248.3 174.1,253.3 184.9,240.2 184,237.7 166.1,244.2 167,246.5 180.8,241.5 169.9,254.5 
						170.9,257.1 188.7,250.6 					"/>
				</g>
			</g>
		</g>
		<g id="XMLID_340_">
			<g>
				<g>
					
						<rect x="174" y="260.1" transform="matrix(0.8935 -0.4491 0.4491 0.8935 -97.8279 110.2121)" class="st0" width="19" height="2.5"/>
				</g>
			</g>
		</g>
		<g id="XMLID_339_">
			<g>
				<g>
					<polygon class="st0" points="200.9,272.2 185.7,276.2 195.5,264 194.1,261.8 181.8,277.6 182.8,279.1 202.3,274.4 					"/>
				</g>
			</g>
		</g>
		<g id="XMLID_338_">
			<g>
				<g>
					<polygon class="st0" points="198.2,286.1 203.6,292.3 205.2,290.9 199.9,284.7 204.6,280.6 209.9,286.8 211.6,285.3 
						204.6,277.3 190.3,289.7 197.3,297.8 199,296.3 193.6,290.1 					"/>
				</g>
			</g>
		</g>
		<g id="XMLID_335_">
			<g>
				<g>
					<path class="st0" d="M220.4,293.4l-5.1-4.3l-12.2,14.5l1.9,1.6l3.9-4.6l3,2.5l-1,7l2.2,1.8l1.1-7.5c2.6,1,5.3,0.2,7.1-1.9
						C223.5,299.8,223.4,295.9,220.4,293.4z M219.3,300.9c-1.5,1.8-3.9,2.2-5.8,0.6l-3.2-2.7l5.5-6.5l3.2,2.7
						C220.9,296.7,220.8,299.2,219.3,300.9z"/>
				</g>
			</g>
		</g>
		<g id="XMLID_334_">
			<g>
				<g>
					<path class="st0" d="M234,302.5c-2.7-1.6-6-1.4-7.7,1.6c-1.8,3.1,0.2,5.5,2.5,8c1.2,1.3,2.5,2.9,1.4,4.8c-1,1.7-3,2-4.9,0.9
						c-2.2-1.3-2.8-3.6-1.5-5.8l-2.1-1.3c-2.1,3.5-0.9,7,2.4,9c3,1.8,6.5,1.4,8.3-1.6c1.9-3.2-0.3-5.8-2.4-8.3
						c-1.3-1.5-2.4-2.9-1.4-4.6c0.9-1.6,2.7-1.8,4.4-0.8c1.9,1.1,2.3,2.9,1.2,4.9l2.1,1.3C238,307.6,237.1,304.3,234,302.5z"/>
				</g>
			</g>
		</g>
		<g id="XMLID_333_">
			<g>
				<g>
					
						<rect x="232" y="316.1" transform="matrix(0.3938 -0.9192 0.9192 0.3938 -145.3604 414.3884)" class="st0" width="19" height="2.5"/>
				</g>
			</g>
		</g>
		<g id="XMLID_332_">
			<g>
				<g>
					<polygon class="st0" points="261.8,314.2 250,310.8 249.4,312.9 254.1,314.3 249.4,330.4 251.7,331.1 256.4,315 261.2,316.4 
											"/>
				</g>
			</g>
		</g>
		<g id="XMLID_329_">
			<g>
				<g>
					<path class="st0" d="M268.5,315.3l-9,17.9l2.6,0.4l1.4-2.7l7.6,1l0.6,3l2.6,0.4l-3.9-19.7L268.5,315.3z M264.5,328.7l4.4-9.3
						l1.7,10.1L264.5,328.7z"/>
				</g>
			</g>
		</g>
		<g id="XMLID_328_">
			<g>
				<g>
					<path class="st0" d="M286,324.1c-1.9-0.5-3.6-1.1-3.6-3.1c-0.1-1.8,1.3-3,3.3-3c2.2-0.1,3.5,1.2,3.7,3.4l2.5-0.1
						c-0.2-3.5-2.7-5.7-6.3-5.6c-3.2,0.1-5.7,2.1-5.6,5.5c0.1,3.6,3.1,4.5,6.4,5.4c1.8,0.5,3.6,1.1,3.7,3.3c0.1,2-1.4,3.3-3.6,3.4
						c-2.6,0.1-4.3-1.5-4.4-4.1l-2.5,0.1c0.2,4,3.1,6.4,6.9,6.2c3.5-0.1,6.3-2.3,6.1-5.9C292.4,325.9,289.2,324.9,286,324.1z"/>
				</g>
			</g>
		</g>
		<g id="XMLID_327_">
			<g>
				<g>
					<polygon class="st0" points="315.3,325.9 306,313.2 303.5,314 315.7,330 317.4,329.5 317.8,309.4 315.3,310.2 					"/>
				</g>
			</g>
		</g>
		<g id="XMLID_326_">
			<g>
				<g>
					
						<rect x="325.1" y="306.1" transform="matrix(0.9024 -0.4309 0.4309 0.9024 -104.1372 171.4197)" class="st0" width="2.5" height="19"/>
				</g>
			</g>
		</g>
		<g id="XMLID_325_">
			<g>
				<g>
					<polygon class="st0" points="339.7,316.7 330.9,302.4 328.8,303.7 338.8,319.8 346.1,315.3 345,313.4 					"/>
				</g>
			</g>
		</g>
		<g id="XMLID_324_">
			<g>
				<g>
					<polygon class="st0" points="347.9,289.6 357.5,300.7 341.4,295.2 339.4,297 351.7,311.3 353.6,309.7 344,298.6 360,304.2 
						362.1,302.4 349.8,288 					"/>
				</g>
			</g>
		</g>
		<g id="XMLID_323_">
			<g>
				<g>
					<polygon class="st0" points="368.1,292.7 363.4,288.8 368.7,282.6 367,281.1 361.7,287.4 357,283.4 362.2,277.1 360.5,275.7 
						353.7,283.9 368.2,296.1 375.1,287.9 373.4,286.5 					"/>
				</g>
			</g>
		</g>
		<g id="XMLID_322_">
			<g>
				<g>
					<polygon class="st0" points="369.6,261.9 382.1,269.5 365.1,269.2 363.7,271.5 379.9,281.4 381.2,279.3 368.7,271.6 385.6,272 
						387,269.6 370.9,259.8 					"/>
				</g>
			</g>
		</g>
		<g id="XMLID_321_">
			<g>
				<g>
					<path class="st0" d="M390.7,248.8c-3.5-1.5-5.7,1.1-7.8,3.6c-1.3,1.5-2.5,2.8-4.3,2c-1.7-0.7-2.1-2.4-1.4-4.2
						c0.8-2,2.5-2.7,4.7-1.9l1-2.3c-3.2-1.3-6.3,0.1-7.7,3.3c-1.2,2.9-0.5,6.1,2.6,7.4c3.3,1.4,5.4-0.9,7.6-3.6
						c1.2-1.4,2.5-2.9,4.5-2c1.9,0.8,2.4,2.7,1.5,4.7c-1,2.4-3.2,3.3-5.6,2.3l-1,2.3c3.7,1.6,7.1-0.1,8.5-3.6
						C394.8,253.6,394,250.2,390.7,248.8z"/>
				</g>
			</g>
		</g>
		<g id="XMLID_320_">
			<g>
				<g>
					
						<rect x="387.7" y="230.5" transform="matrix(0.2874 -0.9578 0.9578 0.2874 47.3494 543.5842)" class="st0" width="2.5" height="19"/>
				</g>
			</g>
		</g>
		<g id="XMLID_319_">
			<g>
				<g>
					<path class="st0" d="M397.7,220.9c-3.7-0.7-5.4,2.2-6.9,5.1c-0.9,1.7-1.9,3.2-3.8,2.9c-1.8-0.3-2.6-1.9-2.2-3.9
						c0.4-2.2,1.9-3.2,4.2-2.8l0.5-2.4c-3.4-0.6-6.2,1.4-6.8,4.8c-0.6,3.1,0.7,6.1,4.1,6.7c3.5,0.7,5.1-2,6.7-5.1
						c0.9-1.6,1.8-3.3,4-2.9c2,0.4,2.9,2.2,2.5,4.3c-0.5,2.5-2.4,3.9-5,3.4l-0.5,2.4c4,0.8,6.9-1.6,7.6-5.3
						C402.7,224.8,401.2,221.6,397.7,220.9z"/>
				</g>
			</g>
		</g>
		<g id="XMLID_318_">
			<g>
				<g>
					<path class="st0" d="M261.1,251.2c1.1,0.5,1.8-1.2,0.6-1.7C260.7,249.2,259.8,250.6,261.1,251.2z"/>
				</g>
			</g>
		</g>
		<g id="XMLID_291_">
			<g>
				<g>
					<path class="st0" d="M351.2,214.1V139l-139.5,0c0,30.3-0.4,61-0.2,91.2H294c1-5.4,8-11.9,4.6-18l-4-4.7c1-0.3,2.3-0.8,3.3-1.3
						l4.4,4.4c0.3,1.5,1,3.3,1.6,4.3c-2,3.3-3.6,8-4.2,11.1c-1.4,0.3-2.1,1.5-1.3,4.2h4.6c0.2-3.4,2.2-5.4,3.4-8.4
						c1.5-3.8,1.7-7.6,0.1-9.6c-3.4-2.7-6.1-5.5-9.6-8.5c-0.4-0.1-0.8-0.5-1.2-0.4c-0.4,0.1,0.6,1.5,1.1,1.7
						c-6.4,2.7-12.7,1.9-19.4,1.1c-0.1-1.6-0.1-2.8,0.5-4.3c0.9,1.1,1.3,1.8,1.9,3.4c0.9-0.8,2.1-3.1,2.7-4.1l4.1,4.2
						c0.2-2.7,0.8-7.6,1.8-9.5c2.9,0.7,5.9,1.2,8.8,1.5c0.4,1.7-0.3,4.4,1.2,4.4c1.5,0.1,0.8-3.3,0.7-4.4c1.4,0.2,3.2,0.2,4.7,0.2
						c0.4,1.6,0.1,4.1,1.4,4.1c1.4,0,0.6-3,0.5-4.2c1.4-0.2,2.7-0.2,4.3-0.7c-2.5,5.1-1.5,11.9,2.1,15.4l-4.1,14
						c-1.4,0.4-1.7,1.7-0.8,4.2h44.1C351.2,225.7,351.2,219.3,351.2,214.1z M274.5,148.4l0.7-4.2l1.1,4.3l21.4-0.7l6,1.7l-5.9,1.5
						l-21.4,0.1l-0.6,4.4l-1.2-4.1h-0.8c0.2-1,0.3-1.6-0.3-2.9L274.5,148.4z M263.1,193.3c2.4-1.2,5.6-1.6,8-1.4
						c0.2,0.7,0.3,1.1,0.3,1.7c-3.1,0.3-6.2,0.6-9.2,1.8C262.3,194.6,262.7,194,263.1,193.3z M262.6,186.1c2.9-2.4,8.2-5.6,12.6-6.4
						c0.4,0,0.5,0.3,0.8,0.3c-6.4,2.8-10.3,6.6-13,10.5C262.8,189.1,262.8,187.5,262.6,186.1z M264.2,191.3c2.5-4.3,6.9-7.8,12.1-10
						c-0.2,1.7,0.5,2.4,1.6,3.6l-3.9,3.9l-2.5,1.9C268.9,190.5,266.9,190.8,264.2,191.3z M282,164.6c2.1-2.7,2.4-6.9,0.6-9.6
						c1.8-0.5,4-0.4,5.8,0.2c0.3,2.3,0.2,5.1-1.6,7.7l1.1,1.7c-1.1,0.2-2.9,0.5-4.3,0.7c-0.1,1.3,0.2,3.3,0.4,4.5
						c-0.8,0.2-2.8,0.7-3.9,0.7C280.2,168.5,280.7,166.4,282,164.6z M281.5,163c-1.5-1.2-2-4.1-1.8-5.9c0-0.7,0.7-1.8,1.5-1.7
						C282.7,156.2,283,162.1,281.5,163z M284.3,171c0.3,1.9,0.9,3.8,1.4,5.6c-1.1,0.4-3.2,1.2-4.7,1.6c-0.5-1.8-0.9-4.3-0.8-6.3
						C281.7,171.6,282.9,171.3,284.3,171z M286.3,177.9c0.3,0.7,0.6,1.2,1,1.9c-3.1,1.1-5.9,2.8-8.5,4.3c-0.9-0.9-2.1-2.6-0.7-3.3
						L286.3,177.9z M274.1,190.4l3.9,3c0,0.2,0,0.4-0.1,0.6c-1.5-0.1-3.8-0.3-5.2-0.4c-0.1-0.7-0.2-1.1-0.3-2
						C273.1,191,273.5,190.7,274.1,190.4z M275.2,189.5c3.1-3.5,7.1-6.4,12.5-8.5c0.7,1.3,1.9,2.6,2.8,3.7c-0.5,1-1.7,1.8-4.1,2.5
						c-2.9,1.5-6.5,4.8-7.6,5.4L275.2,189.5z M285.1,166.3l11.3-1.7c1.6,4.1,2.3,17.1-2.3,20.9C289.1,183,285.3,173.1,285.1,166.3z
						 M271.2,148.4c1,0.1,1.6,1.3,1.6,2.3c-0.1,0.7-0.4,1.4-1,1.9c0.2,1.9,0.6,6.9,0.8,9.8l7.6,3.1c-0.7,1.3-1,2.5-1.1,3.7l-9.8-4.3
						c0-4.2,0.2-8.3,0.3-12.4C267.6,151,268.5,148.1,271.2,148.4z M266,149.8c0.3-0.3,0.7-0.5,1.2-0.2c0.3,0.4,0.3,0.9,0.2,1.3
						c-0.3,0.4-0.9,0.5-1.3,0C265.6,150.7,265.7,150.2,266,149.8z M269.4,173.3c1.8,1.4,3.3,3.2,4.6,5.4c-0.4,0-1.2,0.3-2,0.6
						c-1.5-2.4-4.4-5.9-7.5-6.8l0.5,1.3c2.5,1.6,4,3.1,5.5,6c-2.8,1.2-5.8,2.8-8.5,5.2c0.3-1.5-0.4-3,0.3-4.7
						c1.1-2.8,1.6-5.8-1.7-7.8c-0.8-0.4-1.6-0.5-2.4-0.6c-0.1-0.9-0.1-1.9-0.3-2.8C261.5,168.8,266.6,170.8,269.4,173.3z
						 M260.9,182.3l-1.6-0.1l-1-8.9c1.7,0.1,3,1,3.4,2.2C262.6,177,260.7,180.6,260.9,182.3z M258.2,187.1c-2,0-2.8-1.3-3.1-2.9
						c1.4-0.4,4.2-1,5.8-0.7C261.1,185.7,260.1,187.1,258.2,187.1z M258.2,182.2c-0.8,0.1-2.3,0.4-3.3,0.7l-0.2-0.2l-2-8.3
						c0.9-0.8,3.2-1.3,4.4-1.3L258.2,182.2z M252.6,167.5c0.9,0.2,2,0.7,2.5,1.7c0,0,0.8-0.1,1.6-0.2c0.2,1,0.2,1.7,0.3,2.6
						c-1.3,0.1-3.6,0.6-4.6,1.5l-0.8-1.6c-1.1-1.7-0.5-1.4-1.4-2.3c0.8,0,1.9,0.6,2.9,1.2C252.9,169.4,252.7,168.5,252.6,167.5z
						 M240.5,206.2c0.5-1.9,0.7-4,1.5-5.6c2.8-2.2,6.7-4.4,10.3-6c3.1-0.1,6,0,8.8,0.5c-0.2,0.9-0.4,1.7-0.5,2.8
						c-2.7-0.2-5.2-0.4-8-0.4c-2.7,0.9-5.8,2.5-8.3,4.5c-0.4,1.5,0.2,2.6,0.5,4.1c-1,0.1-2.9,0.1-4.1,0.1H240.5z M247.2,208.5
						c-0.6,0.9-0.2,2.2,0,3.2c-0.8,0.1-1.9,0.3-3.2,0.4c0-1.9,0.6-3.4,1.2-4.6c1.9-2,4.4-4.2,6.1-5.8c0.7-0.7,1.5-1.6,2.4-2.2
						l11-0.8l0.1-0.4c-0.7-0.4-2-0.4-2.8-0.4l0.2-1.3c3-1.4,6.3-1.7,9.5-1.9c0,2.7,0.1,6.2-0.4,8.9c-4,0.8-11.4-1.6-16.1-1.5
						L247.2,208.5z M276.1,204.2c-0.3,2.3,0,2.5,0,3.3c0.1,1.1-2.1,1.3-3.4,1.6c-2,0.7-3.9,1.4-6,2.5c0.2-2,1.4-3,2.8-3.9
						c0.7-0.4,1.6-0.8,2.3-1.5c1-2.6,1-7.4,1.1-11.4c1.1,0.1,3.9,0.3,5.2,0.4C278.5,198.5,276.5,201.3,276.1,204.2z M288.1,192.2
						c-1.7,3-2.5,6-2.7,10l-3.3-3.3c-0.5,1-1.3,2.7-2.1,3.8c-0.4-0.7-1.1-1.7-1.7-2.6c0.8-2.2,1-3.4,0.7-6.3
						c1.1-0.9,4.6-3.9,7.7-5.4c2.6-0.9,4.3-1.8,4.8-2.9c0.4,0.4,1.2,0.9,1.8,1.4c-1.1,1.9-4.8,4.2-8.1,4.9
						C285.8,192.2,287.1,192.2,288.1,192.2z M288.8,194.4c0.1-0.6,0.7-1.8,1.2-2.8c1.5-0.7,2.8-1.6,3.8-2.7c1.4,1.3,2.7,4.5,2.9,6.6
						C294.2,195.5,291.4,195.1,288.8,194.4z M298.4,195.6c-0.5-2.6-1.6-5.5-3.3-8.2c1.5-0.5,3.7,0.5,4.9,1.7
						c1.7,1.6,2.7,4.1,3.2,6.6C302.3,195.6,299.6,195.7,298.4,195.6z M322.1,200c0.8,1,1.2,1.8,1.4,3.1c-0.9-0.7-2-1.1-3.3-1.1
						c0.2,1,0.8,1.8,0.4,3.5l0,0.1c-0.7-1.2-1.4-1.7-2.1-2.4c-2-2.1-1.3-5.4-0.2-8.5c0-1.3-0.7-2.6-2.1-2.6
						c-3.8,0.6-7.1,3.8-10.8,3.5c-1.3-2.7-2.1-7-5.7-8.6c5,0.6,8.3,3.3,10,5.9c3.3-2.8,7.2-6.2,11.8-4.9c1.7,0.6,2.6,1.8,3,3.6
						c0.3,2.9-1.5,6.5,1.6,9C324.8,201.3,323.3,199.6,322.1,200z"/>
				</g>
			</g>
		</g>
		<g id="XMLID_275_">
			<g>
				<g>
					<path class="st0" d="M346.6,232.9H211.5c0.5,17.7,7.3,33,16.9,44.5c27.7,32.9,81.9,32.4,108.4-2.6c9.1-12.7,14-24.8,14.3-41.9
						h-2.6c0,8.7-3,20.3-6,26.4c-0.7,0.6-1,0.8-1.9,1.1c-2.8,1.2-4.3,1.1-7.3,2c-0.6,0.3-1.4,0.6-1.6,1c2.1,0,4.2-0.3,6-0.8
						c-0.9,0.6-1.6,1.1-2.2,1.4c-6.8,4-14.6,7.9-21.8,10.8c1.5-5.1,0.6-13.8-1.9-20.2c2.2-0.3,4.5-0.8,6.6-1.4
						c2.2,2,3.1,6.7,3.3,9.4c1-1.3,1.1-2.1,1.2-4c-0.3-1.8-1.5-4.3-2.7-6.3c1.8-0.8,4.3-2.2,6.2-2.9c2-0.8,4.7-1.3,5.8-1.9
						c-0.7-0.6-2.7-0.2-3.9,0c4.7-3.2,10.8-5.6,16.3-7.3c-0.2-1-3.1,0-4.1,0C343.3,238.3,345.5,235.5,346.6,232.9z M257.7,248.9
						l-0.1,36c-0.3-0.5-0.8-0.7-1.3-1.2l0.1-36c0-1.1,0.2-1.8,0.9-1.8c3.2-0.3,7.6-0.8,11.3-1.3c3.8-0.6,8.3-1,12.2-1.5
						c0.3-0.4,0.2-0.7-0.2-1.1l-24.1,2.8c-0.7,0.3-1.3,0.9-1.3,1.1c0,0.6-0.1,2.3-0.1,2.8c0,12-0.1,23.2-0.2,34.5l-1.4-0.3
						c-0.2-11.3-0.1-24.4-0.1-36.5c0-0.7-0.1-1.9,0.1-2.4c0.2-0.4,1.4-0.4,1.4-0.4c8.4-0.9,17-2.1,25.4-3.1c0.4-0.2,0.3-0.7-0.2-1
						c-8.3,0.9-18.1,1.7-26.1,2.6c-0.3,0-1.5,0.2-1.9,0.8c-0.4,0.6-0.4,1.7-0.4,2.1c0,12.5,0.5,25.3,0.2,37.9h-1.2
						c0-12.9-0.2-29.1-0.2-40.1c0-1.2,0.4-2.2,2.1-2.3c10.4-0.9,16.8-1.2,25.1-2.3c2.5,0,4.6,0.3,5.8,2.1c0.9,1.1,0.3,3.1-1.3,3.8
						c-1,0.5-2.1,0.6-3.3,0.8c-6.6,0.8-13.1,1.5-19.7,2.3C258.5,247.2,258,247.9,257.7,248.9z M278.3,246.5v5.3l-1.2-0.1
						c-2-0.3-3.5-2.7-3.5-4.8C275,246.7,276.8,246.6,278.3,246.5z M258.9,249.9c-0.1-0.9,0.2-1.7,1.2-1.8c1-0.1,2.8-0.2,4.3-0.3
						c0,3.6-1.5,5.4-5.5,5.4C258.9,252.1,259,251.2,258.9,249.9z M260.7,288.4c-0.7,0-1.2-0.3-1.6-1.1v-4.8c1.5,0,2.7,0.4,3.7,1.2
						c1.1,1,1.9,2.3,1.9,4.4C263.5,288.2,262,288.4,260.7,288.4z M266.1,288c0-1.9-0.8-4.3-2.5-5.5c-1.2-0.9-3.1-1.4-4.5-1.2
						l-0.2-27c4,0.1,6.9-1.9,6.7-6.7l6.7-0.8c0,3.3,2.5,6.2,6.1,6.2l0.8,26.5c-4.4,1.3-5.8,3.7-5.5,7.6L266.1,288z M275,286.8
						c-0.1-2.7,0.4-4.8,4-5.8c0.1,0,0.3,5.2,0.3,5.3C278,286.6,276.4,286.7,275,286.8z M279.8,246.2c1.2-0.2,3.2-0.5,4.2-1.9
						c0.5,1.2,0,2.1-1,2.8c-0.8,0.6-2.4,1.1-3.2,1.2C279.7,247.9,279.6,246.2,279.8,246.2z M279.8,249.7c2-0.3,3-0.7,4.2-1.7v7.8
						c-0.5,1.6-2.2,2-4.2,2.6V249.7z M279.9,259.6c1.5-0.3,2.9-0.7,4.2-1.8c0.5,0.6,0.6,1.5,0,2c-1.3,0.9-2.2,1.3-4.1,1.5
						C279.9,260.9,279.9,260.1,279.9,259.6z M280,262.7c1.2-0.1,2.9-0.6,3.8-1.1l0.1,6.9l-3.7,2.1L280,262.7z M280.5,274.6
						c0.5,0.1,0.7,0,0.9,0.7c0.2,0.4,1.1,0.6,1.9,0.9c0.5,0.7,1.1,0.7,1.6,0.8c-0.1,0.9,0,3.4,0,4.4c0,1.3-3.4,2-4.2,2L280.5,274.6z
						 M284.5,285c-0.6,0.6-3,1.2-3.8,1.2l0-1.3c1.6-0.2,3.3-0.8,4.6-1.9C285.5,284,284.9,284.7,284.5,285z M312.5,274.8
						c-0.2,0.9-0.7,0.9-1.2,0.6c-1.5-2.4-2.4-5.3-2.5-8.1c0.9-0.9,2.3-2,3.9-2.6C313.1,267.6,313.1,272,312.5,274.8z M312.5,263.5
						c-6.7,2.7-11.2,10.4-19,11.5c1.9-0.9,3.4-2,4.3-2.7c0-0.4-0.2-0.5-0.5-0.5c-2.8,1.5-4.6,2.8-7.2,3.5l-4.5,0.9
						c-0.3,0-0.7,0.1-1-0.5c1.1-0.6,4.6-1.6,6.4-2.5c1.9-0.9,3.2-1.7,4.9-2.9c0.1-0.3,0-0.8-0.6-0.6c-1.6,1-2.9,1.6-4.6,2.4
						c-2.5,1.2-4.4,1.9-6.8,2.6c-0.7,0.1-1.5-0.1-1.6-0.4c0.3-0.2-0.1-0.3,0.8-0.7c1.1-0.6,4-1.5,6-2.6c2-1,3.5-1.9,5.1-3.1
						c0.1-0.4-0.1-0.7-0.6-0.5c-3.9,2.4-6.9,3.6-11.3,5.2c-0.6,0.2-1.5,0.4-1.9,0.2v-1.1l5.8-3.1c1.8-0.9,3.1-1.7,4.9-3.1l4.5-3.9
						v-0.7c-3.1,0.5-6.5,1.5-10,0v-0.5c1.7-0.5,3.6-0.7,5.2-1.2c2.8-0.8,5.4-2.1,8.5-2.8c3.4-0.5,7.7-0.6,11.5-1
						C311.8,257.8,312.4,260.2,312.5,263.5z"/>
				</g>
			</g>
		</g>
		<g id="XMLID_274_">
			<g>
				<g>
					<path class="st0" d="M261.9,284.8c-1.4-0.5-2,1.4-0.8,2C262.4,287.3,263.1,285.4,261.9,284.8z"/>
				</g>
			</g>
		</g>
		<g id="XMLID_271_">
			<g>
				<g>
					<path class="st0" d="M274.7,265.6c0-2-1.3-2.4-3-2.5c0-1-0.3-2-0.8-2.6c-2.1-1-4.7,0.2-4.1,2.9c-1.2,0.2-3.3,1-3.2,2.9
						c0.1,2,1.3,2.5,3.6,2.4c0.1,1.7,1.2,3.5,2.8,3.3c1.7-0.3,2-2.1,2-4.1C273.4,268,274.9,267.3,274.7,265.6z M270.9,267.2
						c0,1.5,0.5,3.3-0.9,3.5c-2,0.2-1.1-2.3-1.7-3.1c-0.9-0.3-2.9,0.6-3.3-1c0.2-2,2-1.8,3.2-2.1c-0.2-1.5-1-2.7,1.2-3.2
						c1.7,0.2,1.1,1.6,1.2,2.7c1.1,0,3-0.2,3.1,1.5C273.7,267.2,272.1,266.7,270.9,267.2z"/>
				</g>
			</g>
		</g>
		<g id="XMLID_270_">
			<g>
				<g>
					<path class="st0" d="M294.5,180.5c-0.2-1.2-0.5-2.5-0.7-3.5c1.1-0.2,1.8-0.2,2.5-0.4l-0.3-1.9c-0.9,0.3-1.1,0.2-2.4,0.6
						c-0.3-1.2-0.4-2.1-0.7-3.5c0.9-0.1,1.7-0.1,2.5-0.3c0-0.6-0.1-1.2-0.2-1.8c-0.6,0.2-2,0.3-2.7,0.6c-0.3-1.3-0.4-2.2-0.5-3.7
						c-0.4,0.1-1.6,0.2-1.9,0.3c0.4,1.3,0.6,2.4,0.8,3.6c-0.8,0.1-1.5,0.3-2.7,0.4l0.2,1.7c0.9-0.2,2.3-0.5,2.7-0.5
						c0.2,1.4,0.4,2.4,0.5,3.5c-0.8,0.3-1.8,0.3-2.6,0.4l0.4,1.9c1.4-0.3,1.8-0.4,2.5-0.7c0,1.2,0.3,2.8,0.1,3.7
						C293.1,180.8,293.9,180.6,294.5,180.5z"/>
				</g>
			</g>
		</g>
		<g id="XMLID_269_">
			<g>
				<g>
					<path class="st0" d="M277.8,283.7c-1.2-0.6-2.1,1-1,1.7C278.1,286,278.8,284.2,277.8,283.7z"/>
				</g>
			</g>
		</g>
		<g id="XMLID_268_">
			<g>
				<g>
					<path class="st0" d="M256.2,177.1c0.3-0.6,0.1-0.9-0.3-1.4c-0.5-0.1-0.6-0.4-1.1,0c-0.3,0.5-0.1,1.1,0.1,1.5
						C255.6,177.5,256.1,177.6,256.2,177.1z"/>
				</g>
			</g>
		</g>
		<g id="XMLID_267_">
			<g>
				<g>
					<path class="st0" d="M276.1,249.6c1,0.3,1.5-1.3,0.5-1.6C275.4,247.6,275.1,249.5,276.1,249.6z"/>
				</g>
			</g>
		</g>
		<g id="XMLID_266_">
			<g>
				<g>
					<polygon class="st0" points="179.7,176.3 162.2,166.4 161.7,169 175.5,176.4 160,178.7 159.5,181.2 179.4,178 					"/>
				</g>
			</g>
		</g>
		<g id="XMLID_265_">
			<g>
				<g>
					
						<rect x="172" y="152.6" transform="matrix(0.2741 -0.9617 0.9617 0.2741 -30.061 284.2833)" class="st0" width="2.5" height="19"/>
				</g>
			</g>
		</g>
		<g id="XMLID_264_">
			<g>
				<g>
					<polygon class="st0" points="187.8,149.3 185.7,148.5 183.5,154.2 167.9,148.2 167,150.5 184.7,157.3 					"/>
				</g>
			</g>
		</g>
		<g id="XMLID_263_">
			<g>
				<g>
					<polygon class="st0" points="190.4,143.7 177.5,136.7 194.5,136.2 195.8,133.7 179.1,124.7 177.9,126.9 190.8,133.9 
						173.9,134.4 172.6,136.8 189.2,145.8 					"/>
				</g>
			</g>
		</g>
		<g id="XMLID_262_">
			<g>
				<g>
					
						<rect x="190.8" y="113" transform="matrix(0.5762 -0.8173 0.8173 0.5762 -18.6836 208.9102)" class="st0" width="2.5" height="19"/>
				</g>
			</g>
		</g>
		<g id="XMLID_259_">
			<g>
				<g>
					<path class="st0" d="M204.4,121.7l-1.5-2.7l5.1-5.8l2.8,1.2l1.7-1.9l-18.5-7.6l-1.2,1.3l9.9,17.4L204.4,121.7z M196.5,108.2
						l9.4,4.2l-4.1,4.6L196.5,108.2z"/>
				</g>
			</g>
		</g>
		<g id="XMLID_258_">
			<g>
				<g>
					<path class="st0" d="M219.6,107c3.1-2.6,3.1-6.5,0.8-9.3l-8.2-9.8l-1.9,1.6l8.2,9.8c1.5,1.8,1.5,4.4-0.4,6
						c-1.9,1.6-4.5,1.1-6-0.7l-8.2-9.8l-1.9,1.6l8.2,9.8C212.6,109,216.5,109.6,219.6,107z"/>
				</g>
			</g>
		</g>
		<g id="XMLID_257_">
			<g>
				<g>
					<path class="st0" d="M228.9,89.6c1.8-0.4,3.7-0.8,4.8,1.1c1,1.7,0.3,3.6-1.6,4.7c-2.2,1.3-4.5,0.8-5.8-1.5l-2.1,1.3
						c2.1,3.5,5.8,4.1,9,2.2c3-1.8,4.4-5,2.6-8.1c-1.9-3.2-5.2-2.5-8.4-1.8c-1.9,0.4-3.7,0.7-4.7-1c-0.9-1.6-0.3-3.2,1.4-4.2
						c1.9-1.1,3.7-0.7,4.9,1.3l2.1-1.3c-1.8-3-5.1-3.7-8.2-1.9c-2.7,1.6-4.1,4.6-2.3,7.5C222.5,91,225.6,90.4,228.9,89.6z"/>
				</g>
			</g>
		</g>
		<g id="XMLID_256_">
			<g>
				<g>
					<path class="st0" d="M256.5,87.4c3.9-1.1,5.6-4.7,4.6-8.1l-3.4-12.3l-2.4,0.7l3.4,12.3c0.6,2.3-0.4,4.6-2.8,5.3
						c-2.4,0.7-4.5-0.9-5.1-3.1l-3.4-12.3l-2.4,0.7l3.4,12.3C249.4,86.2,252.7,88.5,256.5,87.4z"/>
				</g>
			</g>
		</g>
		<g id="XMLID_255_">
			<g>
				<g>
					<polygon class="st0" points="269.3,84.3 268.1,69.7 277.8,83.6 280.5,83.3 278.9,64.4 276.5,64.6 277.7,79.2 268,65.3 
						265.3,65.6 266.8,84.5 					"/>
				</g>
			</g>
		</g>
		<g id="XMLID_254_">
			<g>
				<g>
					
						<rect x="278.1" y="73" transform="matrix(5.990345e-02 -0.9982 0.9982 5.990345e-02 196.1876 356.9004)" class="st0" width="19" height="2.5"/>
				</g>
			</g>
		</g>
		<g id="XMLID_253_">
			<g>
				<g>
					<polygon class="st0" points="299.9,85.4 310,68.1 307.5,67.6 299.8,81.3 297.8,65.7 295.3,65.2 298.2,85.1 					"/>
				</g>
			</g>
		</g>
		<g id="XMLID_252_">
			<g>
				<g>
					<polygon class="st0" points="318.9,91.3 319.6,89.2 312,86.4 314.1,80.6 321.8,83.5 322.5,81.4 314.9,78.6 317,72.7 
						324.7,75.6 325.5,73.5 315.5,69.8 308.9,87.6 					"/>
				</g>
			</g>
		</g>
		<g id="XMLID_249_">
			<g>
				<g>
					<path class="st0" d="M325,94.3l3-5.2l3.4,1.9l0.3,7.1l2.4,1.4l-0.3-7.6c2.7,0.5,5.3-0.8,6.6-3.2c1.7-3,1-6.9-2.5-8.8l-5.8-3.3
						l-9.4,16.5L325,94.3z M333.2,79.7l3.6,2.1c2.1,1.2,2.5,3.7,1.4,5.7c-1.1,2-3.5,2.9-5.6,1.7l-3.6-2.1L333.2,79.7z"/>
				</g>
			</g>
		</g>
		<g id="XMLID_248_">
			<g>
				<g>
					<path class="st0" d="M340.3,96.4c-2.5,3.1-1.8,6.8,1.1,9.2c2.7,2.2,6.2,2.3,8.5-0.4c2.4-2.9,0.5-5.8-1.3-8.5
						c-1.1-1.6-2-3.2-0.7-4.7c1.1-1.4,2.9-1.4,4.5-0.1c1.7,1.4,1.9,3.2,0.5,5l1.9,1.5c2.2-2.7,1.7-6.1-1.1-8.3
						c-2.5-2-5.7-2.2-7.8,0.5c-2.3,2.8-0.6,5.5,1.3,8.3c1,1.5,2.1,3.2,0.7,4.9c-1.3,1.6-3.3,1.6-5,0.2c-2-1.6-2.3-4-0.7-6
						L340.3,96.4z"/>
				</g>
			</g>
		</g>
		<g id="XMLID_247_">
			<g>
				<g>
					
						<rect x="348.3" y="105.8" transform="matrix(0.7129 -0.7012 0.7012 0.7129 27.6001 281.6012)" class="st0" width="19" height="2.5"/>
				</g>
			</g>
		</g>
		<g id="XMLID_246_">
			<g>
				<g>
					<polygon class="st0" points="357.8,121.4 359.4,123.3 372.4,112.8 375.5,116.7 377.3,115.3 369.6,105.7 367.8,107.1 
						370.9,110.9 					"/>
				</g>
			</g>
		</g>
		<g id="XMLID_245_">
			<g>
				<g>
					<polygon class="st0" points="370,139.2 371.9,138 367.6,131 372.8,127.9 377.1,134.8 379,133.7 374.7,126.7 380,123.5 
						384.3,130.5 386.2,129.3 380.6,120.2 364.4,130.1 					"/>
				</g>
			</g>
		</g>
		<g id="XMLID_244_">
			<g>
				<g>
					<polygon class="st0" points="373.7,146.8 374.7,149 389.9,142.2 391.9,146.7 394,145.7 388.9,134.5 386.9,135.4 388.9,139.9 
											"/>
				</g>
			</g>
		</g>
		<g id="XMLID_241_">
			<g>
				<g>
					<path class="st0" d="M377.7,156.3l3.1,0l2.3,7.3l-2.5,1.8l0.8,2.5l16.1-12l-0.5-1.7l-20-0.5L377.7,156.3z M393.4,156.4
						l-8.4,5.9l-1.9-5.9L393.4,156.4z"/>
				</g>
			</g>
		</g>
		<g id="XMLID_240_">
			<g>
				<g>
					<path class="st0" d="M395.9,168.3c-3.5,0.6-4,3.7-4.4,7.1c-0.2,1.8-0.5,3.8-2.7,4.2c-2,0.4-3.5-1-3.9-3.1
						c-0.5-2.5,0.9-4.5,3.4-5l-0.4-2.4c-4,0.7-5.9,4-5.2,7.7c0.6,3.5,3.2,5.9,6.7,5.2c3.7-0.7,4.2-4,4.6-7.3c0.3-1.9,0.6-3.7,2.5-4
						c1.8-0.3,3.1,0.9,3.5,2.8c0.4,2.2-0.6,3.7-2.9,4.1l0.4,2.4c3.4-0.7,5.3-3.5,4.6-7C401.6,170,399.2,167.7,395.9,168.3z"/>
				</g>
			</g>
		</g>
		<g id="XMLID_239_">
			<g>
				<g>
					<path class="st0" d="M261.3,124.8V109h-2c0,1.9-0.5,2.6-3.4,2.6v1.6h3.2v11.5H261.3z"/>
				</g>
			</g>
		</g>
		<g id="XMLID_238_">
			<g>
				<g>
					<polygon class="st0" points="283.3,124.8 285.5,124.8 292.5,109 282.7,109 282.7,110.8 289.6,110.8 					"/>
				</g>
			</g>
		</g>
		<g id="XMLID_235_">
			<g>
				<g>
					<path class="st0" d="M301.1,124.8l4.7-7.5c0.6-0.9,0.9-2,0.9-3.2c0-2.9-2.1-5.3-5.4-5.3c-3.3,0-5.4,2.5-5.4,5.4
						c0,2.9,2.1,5.4,5.4,5.4c0.3,0,0.8-0.1,1-0.2l-3.6,5.6H301.1z M301.3,117.6c-2,0-3.4-1.6-3.4-3.5c0-1.9,1.3-3.5,3.4-3.5
						s3.3,1.6,3.3,3.5C304.7,116,303.3,117.6,301.3,117.6z"/>
				</g>
			</g>
		</g>
		<g id="XMLID_234_">
			<g>
				<g>
					<circle class="st0" cx="246.4" cy="117.1" r="2.6"/>
				</g>
			</g>
		</g>
		<g id="XMLID_233_">
			<g>
				<g>
					<path class="st0" d="M318.8,117.2c0-1.4-1.1-2.6-2.6-2.6c-1.4,0-2.6,1.1-2.6,2.6s1.1,2.6,2.6,2.6
						C317.7,119.8,318.8,118.6,318.8,117.2z"/>
				</g>
			</g>
		</g>
		<g id="XMLID_232_">
			<g>
				<g>
					<circle class="st0" cx="169.9" cy="200.4" r="2.6"/>
				</g>
			</g>
		</g>
		<g id="XMLID_231_">
			<g>
				<g>
					<path class="st0" d="M392.5,198.5c-1.1,0.9-1.2,2.6-0.2,3.6c0.9,1.1,2.6,1.2,3.6,0.2c1.1-0.9,1.2-2.6,0.2-3.6
						C395.2,197.7,393.6,197.6,392.5,198.5z"/>
				</g>
			</g>
		</g>
		<g>
			<g>
				<g>
					<path class="st1" d="M274,114c-1.5,0-2.8,0.5-3.7,1.6v-4.8h7.6v-1.9h-9.5v8.7h2c0.6-1.4,1.6-2,3.3-2c2,0,3.2,1.4,3.2,3.6
						c0,2.3-1.3,3.7-3.4,3.7c-1.6,0-2.8-0.8-3.1-2.1h-1.9c0.3,2.4,2.2,4,5,4c3.3,0,5.5-2.4,5.5-5.6C278.9,116,277,114,274,114z"/>
				</g>
			</g>
		</g>
	</g>
	<g id="XMLID_229_">
		<g>
			<g>
				<rect x="449.3" y="65.2" class="st1" width="3.4" height="269.6"/>
			</g>
		</g>
	</g>
</g>
</svg>
